<!DOCTYPE svg PUBLIC "-//W3C//DTD SVG 1.1//EN" "http://www.w3.org/Graphics/SVG/1.1/DTD/svg11.dtd">
<!-- Uploaded to: SVG Repo, www.svgrepo.com, Transformed by: SVG Repo Mixer Tools -->
<svg fill="#00d9ff" width="800px" height="800px" viewBox="-1 0 19 19" xmlns="http://www.w3.org/2000/svg" class="cf-icon-svg" stroke="#00d9ff" stroke-width="0.00019">
<g id="SVGRepo_bgCarrier" stroke-width="0"/>
<g id="SVGRepo_tracerCarrier" stroke-linecap="round" stroke-linejoin="round" stroke="#CCCCCC" stroke-width="0.038"/>
<g id="SVGRepo_iconCarrier">
<path d="M16.417 9.579A7.917 7.917 0 1 1 8.5 1.662a7.917 7.917 0 0 1 7.917 7.917zm-11.293.252A1.31 1.31 0 0 0 5.648 8.1c-.267-.76-.934-1.22-1.49-1.024a1.31 1.31 0 0 0-.524 1.73c.267.761.934 1.22 1.49 1.025zm6.664.747a4.606 4.606 0 0 0-6.518 0 1.945 1.945 0 0 0 2.75 2.75.72.72 0 0 1 1.017 0 1.945 1.945 0 0 0 2.75-2.75zM5.84 6.986c.087.918.7 1.61 1.372 1.547.67-.064 1.143-.86 1.057-1.777-.087-.917-.701-1.61-1.372-1.546-.67.063-1.144.859-1.057 1.776zm4.003 1.547c.671.063 1.285-.63 1.372-1.547.087-.917-.386-1.713-1.057-1.776-.67-.064-1.285.629-1.372 1.546-.086.918.387 1.713 1.057 1.777zM12.9 7.076c-.556-.195-1.223.263-1.49 1.024a1.31 1.31 0 0 0 .524 1.73c.556.196 1.223-.263 1.49-1.024a1.31 1.31 0 0 0-.524-1.73z"/>
</g>
</svg>